<svg style="display: block; border-radius: 50%;" version="1.0" xmlns="http://www.w3.org/2000/svg" width="60" height="60" viewBox="0 0 1024.000000 1024.000000" preserveAspectRatio="xMidYMid meet"> <g transform="translate(0.000000,1024.000000) scale(0.100000,-0.100000)" fill="#000000" stroke="none"> <path d="M7820 10165 c-9 -10 -32 -15 -74 -15 -44 0 -69 -6 -91 -20 -16 -11 -45 -20 -63 -20 -19 0 -45 -9 -59 -20 -14 -11 -37 -20 -52 -20 -14 0 -35 -7 -45 -15 -11 -8 -30 -15 -42 -15 -12 0 -33 -9 -47 -20 -14 -11 -34 -20 -45 -20 -10 0 -27 -9 -37 -20 -10 -11 -27 -20 -37 -20 -11 0 -39 -16 -62 -35 -24 -19 -50 -35 -58 -35 -8 0 -23 -9 -33 -20 -10 -11 -25 -20 -34 -20 -9 0 -32 -15 -51 -33 -19 -19 -56 -46 -81 -60 -25 -15 -55 -37 -65 -48 -10 -12 -44 -37 -74 -57 -72 -47 -433 -402 -476 -469 -18 -29 -64 -85 -102 -125 -38 -40 -72 -82 -76 -93 -3 -11 -19 -35 -35 -52 -15 -17 -39 -49 -51 -70 -13 -21 -41 -57 -62 -80 -21 -24 -38 -48 -38 -54 0 -7 -16 -31 -35 -55 -19 -23 -35 -45 -35 -48 0 -7 -44 -71 -61 -89 -14 -15 -57 -82 -96 -149 -11 -21 -37 -57 -57 -80 -20 -23 -36 -47 -36 -54 0 -7 -18 -32 -40 -56 -22 -24 -40 -50 -40 -59 0 -8 -14 -28 -31 -45 -17 -16 -43 -51 -59 -79 -16 -27 -42 -63 -59 -79 -17 -16 -40 -48 -52 -69 -11 -22 -36 -56 -54 -76 -19 -20 -48 -56 -64 -81 -16 -25 -50 -67 -75 -95 -25 -27 -46 -54 -46 -60 0 -7 -24 -38 -53 -71 -29 -32 -58 -70 -64 -84 -6 -14 -38 -56 -72 -94 -33 -37 -63 -77 -66 -87 -4 -10 -24 -37 -46 -58 -21 -22 -39 -46 -39 -54 0 -7 -24 -41 -54 -74 -30 -32 -64 -77 -75 -99 -12 -22 -35 -53 -51 -69 -16 -16 -39 -46 -50 -67 -25 -48 -187 -208 -211 -208 -9 0 -22 -7 -29 -15 -9 -11 -32 -15 -81 -15 l-69 0 0 100 c0 67 5 113 15 137 10 23 15 69 15 137 0 82 4 108 20 139 15 28 20 56 20 119 0 66 4 89 20 113 15 23 20 47 20 105 1 50 6 81 15 94 10 13 15 44 15 91 0 51 5 80 20 108 14 26 20 56 20 102 0 46 6 76 20 102 13 25 20 57 20 96 0 32 7 71 15 87 8 16 16 57 18 92 2 35 12 78 21 95 10 21 16 57 16 101 0 54 4 75 20 95 16 20 20 40 20 98 0 52 4 77 16 90 10 11 18 42 20 81 3 34 11 72 19 85 9 14 15 47 15 85 0 46 5 71 20 93 14 21 20 47 20 88 0 38 7 70 20 94 13 26 20 57 20 98 1 37 6 67 15 79 22 29 22 354 0 362 -8 4 -15 17 -15 30 0 30 -160 194 -189 194 -10 0 -24 7 -31 15 -7 8 -22 15 -35 15 -12 0 -30 9 -40 20 -13 15 -31 20 -68 20 -33 0 -61 7 -84 21 -34 21 -38 21 -486 16 -261 -4 -475 -11 -507 -17 -30 -6 -158 -15 -285 -19 -187 -6 -236 -10 -260 -24 -21 -12 -54 -17 -110 -17 -46 0 -86 -5 -92 -11 -6 -6 -33 -15 -59 -20 -26 -5 -55 -16 -64 -24 -9 -8 -27 -15 -40 -15 -27 0 -190 -154 -190 -180 0 -10 -9 -29 -20 -43 -18 -22 -20 -40 -20 -152 0 -126 0 -127 35 -188 19 -34 40 -69 45 -77 6 -8 23 -35 38 -59 15 -24 37 -56 49 -71 13 -15 23 -33 23 -38 0 -6 12 -28 26 -49 35 -51 84 -158 84 -181 0 -11 7 -25 15 -32 9 -8 15 -30 15 -60 0 -32 6 -55 20 -73 19 -24 20 -40 20 -349 0 -298 -2 -328 -20 -381 -16 -45 -20 -83 -20 -184 -1 -92 -5 -135 -15 -153 -10 -17 -14 -57 -15 -120 0 -76 -4 -104 -20 -135 -15 -30 -20 -59 -20 -125 0 -68 -4 -91 -20 -115 -15 -23 -20 -47 -20 -105 0 -47 -5 -83 -14 -95 -7 -11 -15 -54 -18 -96 -3 -48 -11 -85 -21 -100 -11 -15 -17 -44 -17 -82 0 -38 -7 -71 -20 -97 -13 -26 -20 -59 -20 -100 0 -40 -6 -72 -19 -96 -15 -28 -18 -48 -14 -89 5 -43 1 -62 -16 -95 -15 -30 -21 -59 -21 -108 0 -49 -5 -76 -20 -100 -15 -24 -20 -50 -20 -102 0 -51 -5 -80 -20 -107 -15 -28 -20 -57 -20 -114 0 -56 -4 -80 -15 -89 -11 -9 -15 -33 -15 -86 0 -55 -5 -84 -20 -111 -15 -28 -20 -57 -20 -109 0 -50 -6 -85 -20 -115 -14 -31 -20 -66 -20 -120 0 -56 -4 -80 -15 -89 -11 -9 -15 -34 -15 -94 0 -62 -5 -90 -20 -119 -15 -28 -20 -56 -20 -119 0 -66 -4 -89 -20 -113 -16 -24 -20 -47 -20 -115 -1 -59 -5 -91 -15 -104 -10 -13 -15 -44 -15 -92 0 -56 -4 -77 -20 -97 -15 -18 -20 -40 -20 -81 0 -38 -6 -66 -20 -88 -13 -22 -20 -51 -20 -88 0 -32 -7 -63 -15 -74 -9 -12 -15 -41 -15 -71 0 -31 -8 -64 -20 -88 -13 -23 -20 -56 -20 -89 0 -36 -7 -63 -20 -83 -13 -20 -20 -47 -20 -81 0 -34 -5 -56 -15 -64 -9 -7 -15 -29 -15 -54 0 -23 -9 -55 -20 -74 -11 -18 -20 -50 -20 -71 0 -25 -7 -44 -20 -56 -12 -11 -20 -31 -20 -49 0 -17 -6 -40 -14 -51 -7 -11 -17 -34 -20 -52 -4 -17 -14 -37 -22 -44 -8 -6 -14 -19 -14 -29 0 -9 -9 -29 -20 -43 -11 -14 -20 -32 -20 -40 0 -8 -7 -20 -15 -27 -8 -7 -15 -20 -15 -30 0 -9 -9 -29 -20 -43 -11 -14 -20 -31 -20 -39 0 -7 -15 -29 -34 -48 -18 -19 -49 -60 -69 -90 -19 -30 -65 -84 -102 -120 -37 -36 -84 -90 -104 -120 -20 -30 -49 -69 -64 -86 -29 -33 -67 -100 -67 -120 0 -6 -9 -23 -20 -37 -17 -21 -20 -40 -20 -113 0 -88 4 -102 58 -212 23 -45 106 -122 132 -122 11 0 23 -7 26 -15 4 -8 14 -15 24 -15 9 0 29 -9 43 -20 16 -13 40 -20 66 -20 23 0 58 -8 79 -17 26 -12 80 -19 187 -24 83 -4 173 -12 200 -17 31 -7 262 -11 620 -11 472 -1 579 2 625 14 41 11 114 15 280 15 208 0 227 2 255 20 17 11 47 20 68 20 24 0 49 8 64 20 14 11 33 20 43 20 15 0 145 124 189 182 12 14 21 41 21 59 0 18 8 41 18 52 14 16 17 38 17 131 0 90 -3 116 -17 136 -12 16 -18 43 -18 80 0 38 -6 64 -20 85 -12 18 -20 47 -20 73 0 24 -8 55 -17 69 -12 17 -18 47 -18 84 0 40 -5 63 -18 76 -12 14 -17 37 -17 81 0 43 -6 74 -20 99 -19 36 -20 57 -20 503 0 442 1 467 20 509 15 32 20 65 20 130 0 60 5 93 15 108 8 11 17 53 20 93 3 40 12 82 20 93 8 12 15 44 15 72 0 33 7 60 20 80 11 17 20 47 20 68 0 20 9 54 20 74 11 21 20 52 20 69 0 17 7 37 15 44 8 7 15 24 15 39 0 14 9 41 20 59 11 18 20 43 20 56 0 13 7 29 15 36 8 7 18 30 21 51 8 50 113 169 150 169 16 0 48 -25 104 -82 44 -45 80 -87 80 -93 0 -6 15 -33 34 -60 18 -28 36 -60 40 -72 4 -11 13 -27 21 -33 8 -7 15 -20 15 -29 0 -15 18 -58 61 -143 11 -20 19 -43 19 -51 0 -8 7 -20 15 -27 8 -7 15 -29 15 -50 0 -24 7 -43 20 -55 11 -10 20 -29 20 -42 0 -13 9 -40 20 -60 11 -21 20 -50 20 -64 0 -15 7 -32 15 -39 8 -7 15 -27 15 -44 0 -17 9 -48 20 -69 11 -20 20 -47 20 -59 0 -12 7 -29 16 -39 9 -10 19 -40 21 -66 3 -26 11 -55 18 -63 7 -8 15 -34 18 -58 3 -24 12 -51 21 -61 9 -10 16 -27 16 -39 0 -12 9 -36 20 -54 11 -18 20 -47 20 -64 0 -16 5 -35 11 -41 6 -6 15 -33 20 -59 5 -26 16 -55 24 -64 8 -9 15 -30 15 -46 0 -16 9 -42 20 -59 11 -16 20 -41 20 -54 0 -14 7 -32 15 -41 9 -10 18 -34 20 -56 3 -21 12 -45 20 -54 8 -9 15 -31 15 -49 0 -18 9 -44 20 -58 11 -14 20 -34 20 -45 0 -10 6 -29 14 -41 8 -12 17 -38 20 -58 4 -21 13 -42 21 -49 8 -7 15 -24 15 -39 0 -14 9 -39 20 -56 11 -16 20 -38 20 -48 0 -11 9 -30 20 -44 11 -14 20 -34 20 -43 0 -10 7 -23 15 -30 8 -7 15 -22 15 -34 0 -11 9 -34 20 -51 11 -16 20 -38 20 -48 0 -11 9 -30 20 -44 11 -14 20 -34 20 -43 0 -10 7 -23 15 -30 8 -7 15 -20 15 -30 0 -9 9 -29 20 -43 11 -14 20 -34 20 -44 0 -10 9 -26 20 -36 11 -9 20 -25 20 -36 0 -10 7 -24 15 -31 8 -7 15 -20 15 -30 0 -9 9 -29 20 -43 11 -14 20 -31 20 -38 0 -6 16 -31 35 -55 19 -23 35 -50 35 -58 0 -9 9 -24 20 -33 11 -10 20 -27 20 -39 0 -11 8 -28 18 -37 10 -9 29 -37 41 -63 13 -25 29 -48 36 -51 8 -2 16 -17 20 -32 3 -15 24 -46 46 -70 23 -24 47 -57 54 -75 7 -17 28 -44 45 -61 18 -16 43 -50 58 -75 22 -38 130 -157 312 -340 101 -101 223 -211 252 -226 17 -9 43 -27 57 -41 14 -13 40 -30 56 -37 17 -8 45 -28 64 -45 19 -17 38 -31 43 -31 4 0 31 -16 58 -35 27 -19 55 -35 61 -35 6 0 22 -9 36 -20 14 -11 34 -20 43 -20 10 0 23 -7 30 -15 7 -8 21 -15 32 -15 11 0 31 -9 45 -20 14 -11 35 -20 47 -20 11 0 35 -9 51 -20 17 -11 40 -20 51 -20 12 0 27 -7 34 -15 7 -8 29 -15 50 -15 24 0 43 -7 55 -20 14 -15 31 -20 73 -20 38 0 61 -5 74 -17 13 -11 44 -18 98 -22 44 -4 85 -12 92 -19 19 -19 724 -17 758 3 15 8 53 14 95 15 53 0 77 5 100 20 19 12 47 20 75 20 25 0 56 7 68 16 12 8 47 18 77 21 30 3 60 12 66 19 6 8 28 14 49 14 22 0 48 8 63 20 14 11 33 20 42 20 9 0 28 9 42 20 14 11 36 20 48 20 12 0 28 7 35 15 7 8 18 15 25 15 7 0 24 9 38 20 14 11 32 20 40 20 18 0 207 195 207 214 0 7 9 25 20 39 11 14 20 32 20 40 0 7 9 24 20 37 17 20 20 37 20 131 0 92 -3 113 -22 146 -29 51 -98 123 -119 123 -9 0 -28 9 -42 20 -18 15 -40 20 -82 20 -42 0 -64 5 -82 20 -14 11 -35 20 -47 20 -12 0 -31 7 -42 15 -10 8 -26 15 -35 15 -9 0 -28 9 -42 20 -14 11 -34 20 -44 20 -10 0 -26 9 -36 20 -9 11 -25 20 -36 20 -10 0 -24 6 -30 14 -7 8 -29 23 -49 34 -103 54 -137 73 -142 80 -4 7 -24 20 -81 57 -8 5 -37 24 -64 40 -27 17 -67 46 -89 66 -23 20 -66 54 -97 75 -100 69 -611 581 -624 625 -4 13 -31 49 -60 79 -29 30 -61 71 -71 90 -11 19 -32 50 -48 69 -15 19 -33 47 -38 63 -5 15 -14 28 -18 28 -5 0 -22 24 -39 54 -17 29 -38 59 -46 66 -8 7 -15 19 -15 28 0 8 -16 34 -35 58 -19 23 -35 49 -35 57 0 7 -9 22 -20 32 -11 10 -20 23 -20 29 0 6 -16 35 -35 65 -19 29 -35 57 -35 63 0 5 -9 21 -20 35 -11 14 -20 34 -20 45 0 10 -6 21 -14 24 -8 3 -18 18 -21 34 -3 16 -13 34 -21 41 -8 6 -14 21 -14 34 0 12 -9 30 -20 40 -11 10 -20 28 -20 39 0 12 -9 29 -20 39 -11 9 -20 25 -20 36 0 10 -7 24 -15 31 -8 7 -15 22 -15 35 0 12 -9 30 -20 40 -11 10 -20 28 -20 40 0 12 -9 30 -20 40 -11 10 -20 28 -20 39 0 12 -7 30 -15 40 -8 11 -15 30 -15 42 0 12 -9 33 -20 47 -11 14 -20 33 -20 42 0 9 -9 28 -20 42 -11 14 -20 34 -20 43 0 10 -7 23 -15 30 -8 7 -15 22 -15 34 0 11 -9 36 -20 54 -11 18 -20 43 -20 56 0 12 -9 31 -20 41 -11 10 -20 28 -20 40 0 13 -6 28 -14 34 -8 7 -17 30 -21 51 -4 21 -13 44 -21 51 -8 6 -14 24 -14 39 0 15 -9 35 -20 45 -11 10 -20 28 -20 40 0 13 -7 28 -15 35 -8 7 -15 20 -15 29 0 9 -9 34 -20 56 -11 22 -20 44 -20 51 0 6 -9 23 -20 37 -11 14 -20 34 -20 45 0 11 -7 25 -15 32 -8 7 -17 27 -21 46 -3 18 -12 38 -20 45 -8 6 -14 21 -14 33 0 11 -9 35 -20 51 -11 17 -20 36 -20 43 0 8 -9 25 -20 39 -11 14 -20 36 -20 48 0 13 -7 25 -15 29 -8 3 -15 16 -15 29 0 13 -9 32 -20 42 -11 10 -20 27 -20 37 0 11 -9 31 -20 45 -11 14 -20 34 -20 45 0 10 -7 21 -15 24 -8 4 -15 17 -15 30 0 13 -9 32 -20 41 -11 10 -20 27 -20 39 0 11 -9 29 -20 39 -11 10 -20 24 -20 32 0 7 -16 36 -35 63 -19 27 -35 56 -35 65 0 8 -9 19 -20 25 -11 6 -20 20 -20 30 0 11 -15 37 -33 57 -18 21 -38 50 -44 64 -6 15 -25 42 -41 60 -16 19 -46 59 -67 89 -21 30 -61 78 -89 106 -87 86 -193 208 -200 229 -7 24 79 162 143 230 21 22 72 83 113 135 81 103 416 436 477 474 21 13 87 71 147 129 60 57 128 116 150 130 23 14 66 49 95 77 30 29 74 66 99 83 25 17 68 51 95 75 28 25 64 51 80 58 17 7 43 26 59 43 17 17 35 31 42 31 7 0 35 18 63 40 28 22 56 40 62 40 6 0 28 13 48 28 20 16 66 43 103 61 37 18 70 36 73 40 2 5 22 11 43 15 22 3 45 13 52 21 7 8 24 15 39 15 14 0 40 9 56 20 17 11 47 20 69 20 23 0 47 7 58 17 16 15 62 16 477 14 445 -1 459 -1 484 19 14 11 36 20 49 20 13 0 47 15 75 34 29 19 61 37 72 41 28 9 171 163 171 185 0 9 7 23 15 30 22 18 65 96 65 118 0 11 7 25 15 32 8 7 15 24 15 39 0 14 9 41 20 59 13 21 20 50 20 85 0 35 7 62 20 82 18 28 20 47 20 245 0 196 -2 219 -20 253 -12 22 -20 56 -20 84 0 31 -7 59 -20 78 -11 17 -20 44 -20 61 0 17 -7 37 -15 44 -8 7 -15 22 -15 35 0 12 -9 30 -20 40 -11 10 -20 28 -20 39 0 12 -9 29 -20 39 -11 9 -20 23 -20 30 0 36 -286 324 -332 333 -15 4 -29 12 -32 20 -3 8 -14 14 -24 14 -11 0 -31 9 -45 20 -14 11 -33 20 -44 20 -10 0 -31 9 -48 20 -17 12 -47 20 -71 20 -22 0 -49 7 -60 15 -29 22 -456 22 -474 0z"/> </g> </svg>